<svg xmlns="http://www.w3.org/2000/svg" width="24" height="24" fill="currentColor" viewBox="0 0 24 24" class="mrt-web-icons" color="#FFFFFF"><path d="M6.462 18.806 12 16.425l5.538 2.381V4.794c0-.074-.037-.148-.11-.222-.074-.073-.148-.11-.222-.11H6.794c-.074 0-.148.037-.222.11-.074.074-.11.148-.11.222v14.012Zm-.25 1.939a.957.957 0 0 1-.956-.07.94.94 0 0 1-.456-.844V4.794c0-.554.194-1.025.582-1.412A1.923 1.923 0 0 1 6.794 2.8h10.412c.554 0 1.025.194 1.412.582.388.387.582.858.582 1.412V19.83a.94.94 0 0 1-.457.844.955.955 0 0 1-.955.07L12 18.252l-5.788 2.493Z"></path></svg>